<svg width="45" height="47" viewBox="0 0 45 47" fill="none" xmlns="http://www.w3.org/2000/svg">
<path d="M17.7663 5.27568C21.0204 0.912346 25.9131 -0.361821 30.414 0.864221C35.2723 2.18651 39.544 6.35964 40.9625 12.1713C41.0358 12.4692 41.0992 12.7671 41.1527 13.0651C39.1049 12.3354 36.8776 12.2792 34.7956 12.9046C31.8463 10.723 28.1933 10.3563 24.946 11.5526C20.8783 13.0536 17.7021 16.8601 16.9665 21.6496C16.0269 27.7821 19.7623 33.2913 25.0446 37.9755L25.9338 38.7455C25.2165 38.7959 24.4877 38.6836 23.7911 38.5346C23.4331 38.4576 23.077 38.372 22.7231 38.278L21.4925 37.9342C10.5521 34.8565 3.22792 30.0417 1.12647 22.8459C-0.551034 17.103 1.0623 11.3532 4.6098 7.77818C7.89605 4.46672 12.7681 3.1238 17.7663 5.27568ZM21.4971 22.344C22.4779 15.9457 29.8777 12.7923 33.6773 18.2832C33.7137 18.3342 33.7688 18.3688 33.8305 18.3796C33.8923 18.3903 33.9558 18.3762 34.0073 18.3405C39.4546 14.4813 45.3281 19.9744 44.0608 26.3223C43.3275 30.0043 39.9129 33.0598 33.8171 35.489L32.8202 35.8786L32.2175 36.1261C31.6973 36.3301 31.1473 36.4928 30.65 36.4057C30.155 36.3186 29.6944 35.9748 29.275 35.6082L28.5646 34.9665C23.2632 30.4046 20.9074 26.1971 21.4971 22.344Z" fill="#B3B3B3"/>
</svg>
