<svg width="43" height="43" viewBox="0 0 43 43" fill="none" xmlns="http://www.w3.org/2000/svg">
<path d="M36.55 13.0211C38.2606 13.0211 39.9012 13.7071 41.1108 14.928C42.3205 16.149 43 17.805 43 19.5317V26.0423C43 27.769 42.3205 29.425 41.1108 30.6459C39.9012 31.8669 38.2606 32.5528 36.55 32.5528V34.6492C36.55 36.9496 33.8926 38.2062 32.1425 36.7326L27.1717 32.5528H21.5C19.7894 32.5528 18.1488 31.8669 16.9392 30.6459C15.7296 29.425 15.05 27.769 15.05 26.0423V19.5317C15.05 17.805 15.7296 16.149 16.9392 14.928C18.1488 13.7071 19.7894 13.0211 21.5 13.0211H36.55ZM30.1 0C31.8106 0 33.4512 0.685933 34.6608 1.9069C35.8705 3.12787 36.55 4.78386 36.55 6.51057V8.68076H19.35C17.0691 8.68076 14.8817 9.59534 13.2689 11.2233C11.6561 12.8513 10.75 15.0592 10.75 17.3615V26.0423C10.75 28.308 11.61 30.374 13.0204 31.9191L10.75 33.6379C8.9784 34.9791 6.45 33.703 6.45 31.4677V28.2125C4.73935 28.2125 3.09877 27.5265 1.88916 26.3056C0.679552 25.0846 0 23.4286 0 21.7019V6.51057C0 4.78386 0.679552 3.12787 1.88916 1.9069C3.09877 0.685933 4.73935 0 6.45 0H30.1Z" fill="#B3B3B3"/>
</svg>
