<svg width="40" height="40" viewBox="0 0 40 40" fill="none" xmlns="http://www.w3.org/2000/svg">
<path d="M28.3334 36.6667C26.9445 36.6667 25.7639 36.1806 24.7917 35.2084C23.8195 34.2362 23.3334 33.0556 23.3334 31.6667C23.3334 31.5 23.375 31.1111 23.4584 30.5L11.75 23.6667C11.3056 24.0834 10.7917 24.41 10.2084 24.6467C9.62504 24.8834 9.00004 25.0012 8.33337 25C6.94449 25 5.76393 24.5139 4.79171 23.5417C3.81949 22.5695 3.33337 21.3889 3.33337 20C3.33337 18.6112 3.81949 17.4306 4.79171 16.4584C5.76393 15.4862 6.94449 15 8.33337 15C9.00004 15 9.62504 15.1184 10.2084 15.355C10.7917 15.5917 11.3056 15.9178 11.75 16.3334L23.4584 9.50004C23.4028 9.3056 23.3684 9.11837 23.355 8.93837C23.3417 8.75837 23.3345 8.55671 23.3334 8.33337C23.3334 6.94449 23.8195 5.76393 24.7917 4.79171C25.7639 3.81949 26.9445 3.33337 28.3334 3.33337C29.7223 3.33337 30.9028 3.81949 31.875 4.79171C32.8473 5.76393 33.3334 6.94449 33.3334 8.33337C33.3334 9.72226 32.8473 10.9028 31.875 11.875C30.9028 12.8473 29.7223 13.3334 28.3334 13.3334C27.6667 13.3334 27.0417 13.215 26.4584 12.9784C25.875 12.7417 25.3612 12.4156 24.9167 12L13.2084 18.8334C13.2639 19.0278 13.2989 19.2156 13.3134 19.3967C13.3278 19.5778 13.3345 19.7789 13.3334 20C13.3323 20.2212 13.3256 20.4228 13.3134 20.605C13.3012 20.7873 13.2662 20.9745 13.2084 21.1667L24.9167 28C25.3612 27.5834 25.875 27.2573 26.4584 27.0217C27.0417 26.7862 27.6667 26.6678 28.3334 26.6667C29.7223 26.6667 30.9028 27.1528 31.875 28.125C32.8473 29.0973 33.3334 30.2778 33.3334 31.6667C33.3334 33.0556 32.8473 34.2362 31.875 35.2084C30.9028 36.1806 29.7223 36.6667 28.3334 36.6667Z" fill="#B3B3B3"/>
</svg>
